<svg width="10" height="10" viewBox="0 0 10 10" fill="none" xmlns="http://www.w3.org/2000/svg">
<path d="M3.94874 9.50837C4.38459 9.50837 4.71409 9.341 4.93724 9.00628L9.76464 1.73117C9.84484 1.61262 9.90411 1.49582 9.94247 1.38075C9.98082 1.2622 10 1.14888 10 1.0408C10 0.740934 9.8954 0.493375 9.68619 0.298117C9.48047 0.0993724 9.22594 0 8.92259 0C8.71339 0 8.53556 0.041841 8.38912 0.125523C8.24616 0.205718 8.11018 0.345188 7.98117 0.543933L3.92782 6.909L1.89854 4.47699C1.67887 4.22246 1.40342 4.09519 1.07218 4.09519C0.761855 4.09519 0.505579 4.19456 0.303347 4.39331C0.101116 4.59205 0 4.84135 0 5.14121C0 5.2772 0.0209205 5.40621 0.0627615 5.52824C0.108089 5.64679 0.190028 5.77057 0.308577 5.89958L3.00209 9.07427C3.24965 9.36367 3.5652 9.50837 3.94874 9.50837Z" fill="white"/>
</svg>
